<svg xmlns="http://www.w3.org/2000/svg" viewBox="0 0 64 64">
  <rect width="64" height="64" rx="14" fill="#0065a0"/>
  <path d="M53.3 28.1h-4V17.4c0-3-2.4-5.4-5.4-5.4H33.2V8c0-3.7-3-6.7-6.7-6.7s-6.7 3-6.7 6.7v4H9.1c-3 0-5.4 2.4-5.4 5.4v10.7h4c3.7 0 6.7 3 6.7 6.7s-3 6.7-6.7 6.7h-4v10.7c0 3 2.4 5.4 5.4 5.4h10.7v-4c0-3.7 3-6.7 6.7-6.7s6.7 3 6.7 6.7v4h10.7c3 0 5.4-2.4 5.4-5.4V41.5h4c3.7 0 6.7-3 6.7-6.7s-3-6.7-6.7-6.7z" fill="#fff"/>
  <rect x="20" y="20" width="24" height="24" rx="5" fill="#0065a0"/>
</svg>
